<svg xmlns="http://www.w3.org/2000/svg" viewBox="0 0 1050 1000" role="img" aria-label="Instagram, TikTok, YouTube, and eBay social media links">
  <defs>
    <linearGradient id="bg" x1="0" y1="0" x2="1" y2="1">
      <stop offset="0" stop-color="#151515"/>
      <stop offset="0.52" stop-color="#27231f"/>
      <stop offset="1" stop-color="#0d0d0d"/>
    </linearGradient>
    <radialGradient id="insta" cx="28%" cy="18%" r="92%">
      <stop offset="0" stop-color="#ffd86f"/>
      <stop offset="0.28" stop-color="#ff7a18"/>
      <stop offset="0.55" stop-color="#e1306c"/>
      <stop offset="0.78" stop-color="#833ab4"/>
      <stop offset="1" stop-color="#405de6"/>
    </radialGradient>
    <filter id="shadow" x="-20%" y="-20%" width="140%" height="150%">
      <feDropShadow dx="0" dy="22" stdDeviation="18" flood-color="#000" flood-opacity="0.35"/>
    </filter>
    <filter id="glow" x="-25%" y="-25%" width="150%" height="150%">
      <feDropShadow dx="0" dy="0" stdDeviation="12" flood-color="#ffffff" flood-opacity="0.25"/>
    </filter>
  </defs>
  <rect width="1050" height="1000" rx="44" fill="url(#bg)"/>
  <path d="M70 190c130-76 260-82 390-18 114 56 214 57 325 4 74-35 138-37 194-7v657c-111-58-218-55-322 9-119 74-247 76-384 7-80-40-148-48-203-26z" fill="#fffdf5" opacity="0.055"/>
  <g filter="url(#shadow)">
    <rect x="138" y="154" width="328" height="258" rx="54" fill="url(#insta)"/>
    <rect x="228" y="210" width="148" height="148" rx="43" fill="none" stroke="#ffffff" stroke-width="18" filter="url(#glow)"/>
    <circle cx="302" cy="284" r="36" fill="none" stroke="#ffffff" stroke-width="18"/>
    <circle cx="356" cy="230" r="13" fill="#ffffff"/>
    <text x="302" y="470" text-anchor="middle" fill="#ffffff" font-family="Arial Black, Impact, sans-serif" font-size="48">Instagram</text>
  </g>
  <g filter="url(#shadow)">
    <rect x="584" y="154" width="328" height="258" rx="54" fill="#101010"/>
    <path d="M740 208h45c6 42 31 65 70 70v45c-27-1-51-9-70-23v91c0 66-44 110-110 110-61 0-107-43-107-101 0-61 46-103 111-103 10 0 19 1 28 4v48c-9-4-18-6-28-6-33 0-56 22-56 54 0 31 22 53 52 53 33 0 55-23 55-59z" fill="#ffffff"/>
    <path d="M785 208c7 34 28 54 64 60" fill="none" stroke="#25f4ee" stroke-width="13" stroke-linecap="round"/>
    <path d="M707 349c-9-4-18-6-28-6-33 0-56 22-56 54" fill="none" stroke="#fe2c55" stroke-width="13" stroke-linecap="round"/>
    <text x="748" y="470" text-anchor="middle" fill="#ffffff" font-family="Arial Black, Impact, sans-serif" font-size="48">TikTok</text>
  </g>
  <g filter="url(#shadow)">
    <rect x="138" y="522" width="328" height="258" rx="54" fill="#ffffff"/>
    <rect x="190" y="612" width="224" height="118" rx="34" fill="#ff0033"/>
    <path d="M285 638v66l59-33z" fill="#ffffff"/>
    <text x="302" y="838" text-anchor="middle" fill="#ffffff" font-family="Arial Black, Impact, sans-serif" font-size="48">YouTube</text>
  </g>
  <g filter="url(#shadow)">
    <rect x="584" y="522" width="328" height="258" rx="54" fill="#fffdf5"/>
    <text x="748" y="698" text-anchor="middle" font-family="Arial Black, Impact, sans-serif" font-size="102">
      <tspan fill="#e53238">e</tspan><tspan fill="#0064d2">B</tspan><tspan fill="#f5af02">a</tspan><tspan fill="#86b817">y</tspan>
    </text>
    <text x="748" y="838" text-anchor="middle" fill="#0064d2" font-family="Arial Black, Impact, sans-serif" font-size="48">eBay Store</text>
  </g>
  <text x="525" y="910" text-anchor="middle" fill="#ffc20f" font-family="Arial Black, Impact, sans-serif" font-size="58">FOLLOW VERO FLASHBACK</text>
  <text x="525" y="958" text-anchor="middle" fill="#ffffff" opacity="0.86" font-family="Arial, Helvetica, sans-serif" font-size="27" font-weight="700">finds, booth updates, videos, and listings</text>
</svg>
